<svg width="20" height="20" viewBox="0 0 20 20" fill="none" xmlns="http://www.w3.org/2000/svg">
<path d="M10 10.8334C10.4602 10.8334 10.8333 10.4603 10.8333 10C10.8333 9.53978 10.4602 9.16669 10 9.16669C9.53977 9.16669 9.16667 9.53978 9.16667 10C9.16667 10.4603 9.53977 10.8334 10 10.8334Z" stroke="#96A09B" stroke-width="1.5" stroke-linecap="round" stroke-linejoin="round"/>
<path d="M10 16.6667C10.4602 16.6667 10.8333 16.2936 10.8333 15.8333C10.8333 15.3731 10.4602 15 10 15C9.53977 15 9.16667 15.3731 9.16667 15.8333C9.16667 16.2936 9.53977 16.6667 10 16.6667Z" stroke="#96A09B" stroke-width="1.5" stroke-linecap="round" stroke-linejoin="round"/>
<path d="M10 5.00001C10.4602 5.00001 10.8333 4.62691 10.8333 4.16668C10.8333 3.70644 10.4602 3.33334 10 3.33334C9.53977 3.33334 9.16667 3.70644 9.16667 4.16668C9.16667 4.62691 9.53977 5.00001 10 5.00001Z" stroke="#96A09B" stroke-width="1.5" stroke-linecap="round" stroke-linejoin="round"/>
</svg>
