<svg width="16" height="16" viewBox="0 0 16 16" fill="none" xmlns="http://www.w3.org/2000/svg">
<path d="M6.00001 7.33333C7.47277 7.33333 8.66668 6.13943 8.66668 4.66667C8.66668 3.19391 7.47277 2 6.00001 2C4.52725 2 3.33334 3.19391 3.33334 4.66667C3.33334 6.13943 4.52725 7.33333 6.00001 7.33333Z" stroke="#96A09B" stroke-width="1.5" stroke-linecap="round" stroke-linejoin="round"/>
<path d="M10.6667 2.08667C11.2403 2.23354 11.7487 2.56714 12.1118 3.03488C12.4748 3.50262 12.6719 4.07789 12.6719 4.67C12.6719 5.26212 12.4748 5.83739 12.1118 6.30513C11.7487 6.77287 11.2403 7.10647 10.6667 7.25334M14 14V12.6667C13.9966 12.0781 13.7986 11.5072 13.4368 11.0429C13.0751 10.5787 12.5699 10.2471 12 10.1M2 14V12.6667C2 11.9594 2.28095 11.2811 2.78105 10.7811C3.28115 10.281 3.95942 10 4.66667 10H7.33333C8.04058 10 8.71885 10.281 9.21895 10.7811C9.71905 11.2811 10 11.9594 10 12.6667V14H2Z" stroke="#96A09B" stroke-width="1.5" stroke-linecap="round" stroke-linejoin="round"/>
</svg>
